<svg width="680" height="180" viewBox="0 0 680 180" fill="none" xmlns="http://www.w3.org/2000/svg">
<g clip-path="url(#clip0_120_513)">
<path d="M145.372 56.5506H96.1139C95.9525 51.4182 93.9511 47.4061 90.107 44.5184C86.2623 41.6307 80.9761 40.1865 74.2479 40.1865C62.7143 40.1865 56.9475 43.7172 56.9475 50.7752C56.9475 52.7001 57.9089 54.5462 59.8309 56.3095C61.753 58.0769 64.4337 59.5584 67.8804 60.7616C71.3232 61.9648 74.4886 62.9689 77.372 63.7695C80.2554 64.574 83.4988 65.3338 87.1029 66.0556C90.7077 66.7774 92.8291 67.2214 93.4711 67.3796C100.199 69.1463 105.965 70.8308 110.772 72.4326C115.577 74.0383 120.781 76.3245 126.389 79.2909C131.995 82.2614 136.519 85.5477 139.966 89.1572C143.408 92.7673 146.334 97.3395 148.737 102.874C151.139 108.409 152.341 114.628 152.341 121.524C152.341 139.331 145.612 153.492 132.156 163.997C118.701 174.506 100.518 179.759 77.612 179.759C53.7414 179.759 34.9202 174.266 21.1452 163.275C7.36619 152.289 0.319341 137.249 0 118.155H52.6227C53.4221 132.917 62.313 140.294 79.2941 140.294C85.8603 140.294 91.0677 139.012 94.9125 136.443C98.7573 133.879 100.679 130.428 100.679 126.096C100.679 123.37 99.5566 121.043 97.3152 119.117C95.2319 117.354 91.2258 115.429 85.3009 113.342C79.3728 111.259 72.3633 109.052 64.2764 106.724C56.1855 104.401 51.098 102.837 49.018 102.032C42.1285 99.6257 36.441 97.3015 31.9582 95.0534C27.4714 92.8087 23.1459 89.8796 18.9825 86.2695C14.8151 82.66 11.733 78.2494 9.7316 73.0341C7.72688 67.823 6.72819 61.6863 6.72819 54.625C6.72819 38.5848 13.0957 25.6279 25.8307 15.7616C38.5657 5.89536 55.2655 0.961914 75.93 0.961914C97.7132 0.961914 114.653 5.81658 126.751 15.5212C138.843 25.2292 145.05 38.9046 145.372 56.5506Z" fill="white"/>
<path d="M245.328 0C270.957 0 291.622 8.30187 307.322 24.9063C323.02 41.5107 330.871 63.2883 330.871 90.2404C330.871 117.035 322.979 138.692 307.202 155.214C291.422 171.74 270.637 180 244.848 180C218.574 180 197.43 171.781 181.413 155.334C165.393 138.892 157.385 117.114 157.385 90C157.385 62.8904 165.393 41.1121 181.413 24.6653C197.43 8.22309 218.736 0 245.328 0ZM244.608 42.1123C234.035 42.1123 225.745 46.2859 219.738 54.6252C213.732 62.9692 210.728 74.5199 210.728 89.2782C210.728 104.521 213.69 116.35 219.618 124.773C225.543 133.195 233.952 137.406 244.848 137.406C255.578 137.406 263.748 133.195 269.357 124.773C274.963 116.35 277.767 104.04 277.767 87.8341C277.767 73.5572 274.843 62.3676 268.997 54.2647C263.148 46.1651 255.019 42.1123 244.608 42.1123Z" fill="white"/>
<path d="M499.307 4.57178V175.909H449.089L406.558 102.994C402.551 96.0987 398.227 87.5144 393.583 77.2463C394.702 87.5144 395.264 100.588 395.264 116.471L395.504 175.909H344.804V4.57178H396.706L433.709 68.8235C441.238 81.6603 446.843 92.4065 450.53 101.07C449.569 88.0746 449.089 74.9221 449.089 61.6046L448.849 4.57178H499.307Z" fill="white"/>
<path d="M617.045 4.57178L680 175.909H626.897L618.486 151.605H563.461L555.051 175.909H501.949L565.144 4.57178H617.045ZM606.953 114.786L597.822 85.428C595.739 78.5322 593.576 69.8691 591.335 59.4387C588.77 69.7069 586.367 78.4494 584.126 85.6683C581.723 93.5309 578.6 103.236 574.755 114.786H606.953Z" fill="white"/>
</g>
<defs>
<clipPath id="clip0_120_513">
<rect width="680" height="180" fill="white"/>
</clipPath>
</defs>
</svg>
