<svg width="156" height="61" viewBox="0 0 156 61" fill="none" xmlns="http://www.w3.org/2000/svg">
<path d="M37.7966 46.8118L51.3759 23.8726V60.4148" fill="#F2F2F2"/>
<path d="M64.9551 13.6417H51.3759V23.7211L39.5007 16.8849L37.7966 19.7638L13.3867 61L0 47.5517L26.1011 3.46079L37.7966 10.1922V0H51.3759L64.9551 13.6417Z" fill="#F2F2F2"/>
<path d="M82.2043 49.6609H80.9043L79.9263 46.9498H76.2249L75.2221 49.6609H73.9841L77.4505 40.8062H78.7627L82.2043 49.6609ZM78.0818 41.9254L76.5591 46.017H79.5797L78.0818 41.9254Z" fill="#F2F2F2"/>
<path d="M85.1508 49.8475C83.17 49.8475 82.1177 48.4919 82.1177 46.5394C82.1177 44.4003 83.3062 43.0571 85.1879 43.0571C86.7477 43.0571 87.7257 43.8779 87.8991 45.333H86.8096C86.6239 44.4251 86.0668 43.9401 85.2003 43.9401C83.9871 43.9401 83.2196 44.9102 83.2196 46.4523C83.2196 48.0193 83.9375 48.9645 85.1261 48.9645C86.0793 48.9645 86.7106 48.38 86.8716 47.3229H87.9362C87.7505 48.8526 86.7354 49.8475 85.1508 49.8475Z" fill="#F2F2F2"/>
<path d="M94.4852 46.415C94.4852 48.5914 93.3586 49.8599 91.4149 49.8599C89.459 49.8599 88.2953 48.5914 88.2953 46.4772C88.2953 44.363 89.4962 43.0571 91.4274 43.0571C93.3586 43.0571 94.4852 44.2884 94.4852 46.415ZM89.3848 46.4523C89.3848 48.0317 90.1399 48.9645 91.4274 48.9645C92.6653 48.9645 93.4081 48.0193 93.4081 46.4399C93.4081 44.9102 92.6406 43.9401 91.4026 43.9401C90.1646 43.9401 89.3848 44.9226 89.3848 46.4523Z" fill="#F2F2F2"/>
<path d="M100.576 49.6609H99.5979V48.6536C99.0409 49.4619 98.3352 49.835 97.3943 49.835C96.0574 49.835 95.2651 49.0764 95.2651 47.6586V43.2437H96.3172V47.3726C96.3172 48.2929 96.5772 48.9147 97.6543 48.9147C99.0409 48.9147 99.5236 47.9198 99.5236 46.6015V43.2437H100.576V49.6609Z" fill="#F2F2F2"/>
<path d="M105.392 45.1092C105.318 44.2635 104.736 43.9401 103.832 43.9401C103.027 43.9401 102.532 44.2759 102.532 44.8107C102.532 45.532 103.362 45.6439 104.228 45.8429C105.305 46.0917 106.704 46.4025 106.704 47.7954C106.704 49.0391 105.652 49.8599 104.055 49.8599C102.322 49.8599 101.368 49.0764 101.307 47.6338H102.346C102.408 48.6038 103.064 48.9894 104.08 48.9894C105.02 48.9894 105.639 48.5665 105.639 47.9198C105.639 47.2109 104.921 47.0617 104.03 46.8378C102.928 46.5643 101.455 46.4274 101.455 44.9475C101.455 43.7909 102.408 43.0571 103.894 43.0571C105.33 43.0571 106.444 43.7536 106.444 45.1092H105.392Z" fill="#F2F2F2"/>
<path d="M110.17 44.1142H108.895V47.8576C108.895 48.4421 108.858 48.8027 109.601 48.8027C109.811 48.8027 109.948 48.7903 110.17 48.7655V49.6733C109.836 49.7106 109.7 49.7231 109.366 49.7231C107.769 49.7231 107.843 48.9271 107.843 47.5218V44.1142H106.766V43.2436H107.843V41.3408H108.895V43.2436H110.17V44.1142Z" fill="#F2F2F2"/>
<path d="M111.99 42.0995H110.926V40.8062H111.99V42.0995ZM111.99 49.6609H110.926V43.2437H111.99V49.6609Z" fill="#F2F2F2"/>
<path d="M115.877 49.8475C113.897 49.8475 112.844 48.4919 112.844 46.5394C112.844 44.4003 114.033 43.0571 115.914 43.0571C117.474 43.0571 118.452 43.8779 118.626 45.333H117.536C117.35 44.4251 116.793 43.9401 115.927 43.9401C114.714 43.9401 113.946 44.9102 113.946 46.4523C113.946 48.0193 114.664 48.9645 115.853 48.9645C116.806 48.9645 117.437 48.38 117.598 47.3229H118.663C118.477 48.8526 117.462 49.8475 115.877 49.8475Z" fill="#F2F2F2"/>
<path d="M126.202 40.8062C127.886 40.8062 129.136 41.515 129.136 43.3556C129.136 45.3579 127.848 46.0295 126.128 46.0295H123.738V49.6609H122.575V40.8062H126.202ZM123.738 45.047H125.979C127.106 45.047 127.972 44.7361 127.972 43.4302C127.972 42.0124 126.969 41.8135 125.818 41.8135H123.738V45.047Z" fill="#F2F2F2"/>
<path d="M135.561 49.6361C135.338 49.7232 135.078 49.7604 134.843 49.7604C134.249 49.7604 133.927 49.4247 133.915 48.8153C133.283 49.5242 132.59 49.8351 131.6 49.8351C130.337 49.8351 129.557 49.1386 129.557 48.0193C129.557 46.8752 130.312 46.2036 131.822 46.017C133.345 45.8305 133.865 45.8678 133.865 44.9972C133.865 44.3132 133.358 43.9402 132.417 43.9402C131.439 43.9402 130.931 44.3008 130.832 45.246H129.805C129.842 43.878 130.832 43.0696 132.479 43.0696C133.333 43.0696 134.063 43.2934 134.484 43.6914C134.93 44.1267 134.917 44.7859 134.917 45.3579C134.917 46.3155 134.868 47.2607 134.868 48.2183C134.868 48.6909 134.979 48.8526 135.301 48.8526C135.4 48.8526 135.45 48.8401 135.561 48.8153V49.6361ZM132.454 46.7135C131.686 46.813 130.646 46.9001 130.646 47.9323C130.646 48.5914 131.129 49.0018 131.921 49.0018C132.912 49.0018 133.865 48.3178 133.865 47.497V46.328C133.469 46.6264 132.924 46.6513 132.454 46.7135Z" fill="#F2F2F2"/>
<path d="M137.084 44.2386C137.616 43.4551 138.285 43.0696 139.263 43.0696C140.823 43.0696 141.392 43.9277 141.392 45.3952V49.661H140.34V45.8802C140.34 44.8604 140.29 43.9899 138.966 43.9899C137.591 43.9899 137.146 45.0345 137.146 46.3031V49.661H136.094V43.2437H137.084V44.2386Z" fill="#F2F2F2"/>
<path d="M145.193 49.8724C143.311 49.8724 142.184 48.6287 142.184 46.5394C142.184 44.4625 143.385 43.0571 145.156 43.0571C147.26 43.0571 148.052 44.7361 148.052 46.5891V46.7384H143.249L143.237 46.813C143.237 48.181 143.992 49.0018 145.23 49.0018C146.146 49.0018 146.654 48.6038 146.951 47.6338H147.978C147.656 49.1138 146.703 49.8724 145.193 49.8724ZM145.131 43.9277C144.103 43.9277 143.385 44.6739 143.249 45.8802H146.963C146.864 44.6614 146.183 43.9277 145.131 43.9277Z" fill="#F2F2F2"/>
<path d="M149.823 49.6609H148.758V40.8062H149.823V49.6609Z" fill="#F2F2F2"/>
<path d="M154.688 45.1092C154.613 44.2635 154.032 43.9401 153.128 43.9401C152.323 43.9401 151.828 44.2759 151.828 44.8107C151.828 45.532 152.658 45.6439 153.524 45.8429C154.601 46.0917 156 46.4025 156 47.7954C156 49.0391 154.948 49.8599 153.351 49.8599C151.618 49.8599 150.664 49.0764 150.602 47.6338H151.642C151.704 48.6038 152.36 48.9894 153.376 48.9894C154.316 48.9894 154.935 48.5665 154.935 47.9198C154.935 47.2109 154.217 47.0617 153.326 46.8378C152.224 46.5643 150.751 46.4274 150.751 44.9475C150.751 43.7909 151.704 43.0571 153.19 43.0571C154.626 43.0571 155.74 43.7536 155.74 45.1092H154.688Z" fill="#F2F2F2"/>
<path d="M91.5177 24.1242H85.5766C85.5571 23.5032 85.3157 23.0178 84.8521 22.6684C84.3884 22.3191 83.7508 22.1443 82.9393 22.1443C81.5482 22.1443 80.8527 22.5715 80.8527 23.4254C80.8527 23.6583 80.9686 23.8817 81.2004 24.095C81.4323 24.3088 81.7556 24.4881 82.1713 24.6336C82.5865 24.7792 82.9683 24.9007 83.3161 24.9975C83.6639 25.0949 84.0551 25.1868 84.4898 25.2741C84.9245 25.3615 85.1804 25.4152 85.2578 25.4343C86.0692 25.6481 86.7648 25.8519 87.3445 26.0457C87.9241 26.2399 88.5517 26.5165 89.2281 26.8754C89.9042 27.2348 90.4499 27.6324 90.8656 28.0691C91.2808 28.5059 91.6337 29.0591 91.9235 29.7286C92.2133 30.3983 92.3582 31.1507 92.3582 31.9851C92.3582 34.1395 91.5467 35.8527 89.9237 37.1237C88.3009 38.3952 86.1078 39.0307 83.345 39.0307C80.466 39.0307 78.1959 38.3661 76.5345 37.0364C74.8726 35.7071 74.0226 33.8875 73.9841 31.5775H80.331C80.4275 33.3634 81.4998 34.2559 83.5479 34.2559C84.3399 34.2559 84.968 34.1008 85.4317 33.7901C85.8954 33.4799 86.1272 33.0623 86.1272 32.5382C86.1272 32.2084 85.9918 31.9268 85.7215 31.6939C85.4702 31.4805 84.987 31.2476 84.2724 30.9951C83.5574 30.7431 82.712 30.4761 81.7366 30.1945C80.7607 29.9134 80.1471 29.7241 79.8963 29.6268C79.0653 29.3357 78.3793 29.0545 77.8387 28.7825C77.2975 28.5109 76.7758 28.1565 76.2736 27.7197C75.771 27.283 75.3993 26.7494 75.1579 26.1184C74.9161 25.488 74.7956 24.7455 74.7956 23.8912C74.7956 21.9505 75.5636 20.3829 77.0996 19.1892C78.6356 17.9956 80.6498 17.3987 83.1422 17.3987C85.7695 17.3987 87.8126 17.986 89.2717 19.1602C90.7302 20.3347 91.4788 21.9892 91.5177 24.1242Z" fill="#F2F2F2"/>
<path d="M103.574 17.2822C106.665 17.2822 109.157 18.2866 111.051 20.2955C112.944 22.3045 113.891 24.9392 113.891 28.2001C113.891 31.4419 112.939 34.0621 111.036 36.061C109.133 38.0604 106.626 39.0598 103.516 39.0598C100.347 39.0598 97.7964 38.0654 95.8647 36.0755C93.9324 34.0863 92.9666 31.4514 92.9666 28.171C92.9666 24.8911 93.9324 22.2562 95.8647 20.2664C97.7964 18.2771 100.366 17.2822 103.574 17.2822ZM103.487 22.3772C102.211 22.3772 101.212 22.8822 100.487 23.8911C99.7626 24.9006 99.4003 26.2981 99.4003 28.0837C99.4003 29.9279 99.7576 31.3591 100.473 32.378C101.187 33.397 102.201 33.9065 103.516 33.9065C104.81 33.9065 105.795 33.397 106.472 32.378C107.148 31.3591 107.486 29.8696 107.486 27.909C107.486 26.1816 107.133 24.8279 106.428 23.8475C105.723 22.8676 104.742 22.3772 103.487 22.3772Z" fill="#F2F2F2"/>
<path d="M134.206 17.8352V38.5647H128.149L123.02 29.743C122.536 28.9087 122.015 27.8701 121.455 26.6278C121.59 27.8701 121.658 29.4519 121.658 31.3735L121.687 38.5647H115.572V17.8352H121.831L126.295 25.6088C127.202 27.1619 127.879 28.462 128.323 29.5101C128.207 27.9379 128.149 26.3466 128.149 24.7354L128.12 17.8352L134.206 17.8352Z" fill="#F2F2F2"/>
<path d="M148.407 17.8352L156 38.5647H149.595L148.581 35.6242H141.944L140.93 38.5647H134.525L142.147 17.8352H148.407ZM147.19 31.1697L146.088 27.6177C145.837 26.7834 145.576 25.7353 145.306 24.4734C144.997 25.7157 144.707 26.7734 144.436 27.6468C144.147 28.598 143.77 29.7722 143.306 31.1697H147.19Z" fill="#F2F2F2"/>
</svg>
