<svg width="540" height="59" viewBox="0 0 540 59" fill="none" xmlns="http://www.w3.org/2000/svg">
<path d="M54.1228 57.1797H45.5643L39.125 39.6724H14.7535L8.15107 57.1797H0L22.8229 0H31.463L54.1228 57.1797ZM26.98 7.22777L16.9543 33.6493H36.8428L26.98 7.22777Z" fill="white"/>
<path d="M73.5224 58.3841C60.4807 58.3841 53.5523 49.6304 53.5523 37.022C53.5523 23.2089 61.3774 14.5356 73.767 14.5356C84.0372 14.5356 90.4765 19.836 91.6177 29.2321H84.4448C83.2221 23.3696 79.5541 20.2375 73.8484 20.2375C65.8604 20.2375 60.8069 26.5015 60.8069 36.4599C60.8069 46.5787 65.5345 52.6821 73.3593 52.6821C79.6355 52.6821 83.7926 48.9076 84.8522 42.0815H91.8623C90.6396 51.9594 83.9557 58.3841 73.5224 58.3841Z" fill="white"/>
<path d="M134.98 36.219C134.98 50.273 127.563 58.4643 114.766 58.4643C101.887 58.4643 94.2251 50.273 94.2251 36.6205C94.2251 22.9679 102.132 14.5356 114.847 14.5356C127.563 14.5356 134.98 22.4861 134.98 36.219ZM101.398 36.4599C101.398 46.659 106.37 52.6822 114.847 52.6822C122.998 52.6822 127.889 46.5787 127.889 36.3795C127.889 26.5015 122.835 20.2375 114.684 20.2375C106.533 20.2375 101.398 26.5819 101.398 36.4599Z" fill="white"/>
<path d="M175.083 57.18H168.644V50.675C164.976 55.8952 160.33 58.3043 154.135 58.3043C145.332 58.3043 140.115 53.4055 140.115 44.2503V15.7407H147.044V42.4032C147.044 48.3461 148.755 52.3616 155.847 52.3616C164.976 52.3616 168.155 45.9368 168.155 37.4242V15.7407H175.083V57.18Z" fill="white"/>
<path d="M206.791 27.7865C206.302 22.3255 202.47 20.2375 196.52 20.2375C191.222 20.2375 187.962 22.4058 187.962 25.8591C187.962 30.517 193.423 31.2398 199.129 32.5248C206.22 34.1309 215.431 36.1386 215.431 45.1332C215.431 53.164 208.502 58.4643 197.987 58.4643C186.576 58.4643 180.3 53.4049 179.892 44.0892H186.739C187.147 50.3532 191.467 52.8429 198.151 52.8429C204.345 52.8429 208.421 50.1123 208.421 45.9362C208.421 41.3587 203.693 40.395 197.825 38.9494C190.57 37.1827 180.87 36.2992 180.87 26.7425C180.87 19.2738 187.147 14.5356 196.928 14.5356C206.383 14.5356 213.719 19.0328 213.719 27.7865L206.791 27.7865Z" fill="white"/>
<path d="M238.254 21.3619H229.858V45.5349C229.858 49.3094 229.614 51.6383 234.504 51.6383C235.89 51.6383 236.787 51.558 238.254 51.3974V57.2599C236.053 57.5009 235.156 57.5811 232.956 57.5811C222.441 57.5811 222.93 52.4413 222.93 43.3665V21.3619H215.838V15.7403H222.93V3.45312H229.858V15.7403H238.254V21.3619Z" fill="white"/>
<path d="M250.235 8.35207H243.225V0H250.235V8.35207ZM250.235 57.1797H243.225V15.7404H250.235V57.1797Z" fill="white"/>
<path d="M275.828 58.3841C262.786 58.3841 255.858 49.6304 255.858 37.022C255.858 23.2089 263.683 14.5356 276.073 14.5356C286.343 14.5356 292.782 19.836 293.923 29.2321H286.751C285.528 23.3696 281.86 20.2375 276.154 20.2375C268.166 20.2375 263.113 26.5015 263.113 36.4599C263.113 46.5787 267.84 52.6821 275.665 52.6821C281.941 52.6821 286.098 48.9076 287.158 42.0815H294.168C292.945 51.9594 286.261 58.3841 275.828 58.3841Z" fill="white"/>
<path d="M343.807 0C354.892 0 363.125 4.57754 363.125 16.4632C363.125 29.3929 354.648 33.7295 343.318 33.7295H327.586V57.1797H319.924V0H343.807ZM327.586 27.3853H342.34C349.757 27.3853 355.463 25.3775 355.463 16.9451C355.463 7.78985 348.861 6.50498 341.28 6.50498H327.586V27.3853Z" fill="white"/>
<path d="M405.429 57.0187C403.962 57.5808 402.25 57.8218 400.701 57.8218C396.789 57.8218 394.67 55.6535 394.588 51.7183C390.431 56.296 385.866 58.3036 379.346 58.3036C371.031 58.3036 365.896 53.8063 365.896 46.5785C365.896 39.1902 370.869 34.8536 380.813 33.6489C390.838 32.4443 394.262 32.6852 394.262 27.0636C394.262 22.6466 390.92 20.2373 384.725 20.2373C378.286 20.2373 374.944 22.5663 374.292 28.6698H367.527C367.771 19.8358 374.292 14.6157 385.133 14.6157C390.757 14.6157 395.566 16.0613 398.337 18.6312C401.272 21.442 401.19 25.6984 401.19 29.3925C401.19 35.5762 400.864 41.6797 400.864 47.8635C400.864 50.9153 401.598 51.9592 403.717 51.9592C404.369 51.9592 404.695 51.879 405.429 51.7183V57.0187ZM384.97 38.1461C379.916 38.7887 373.069 39.3508 373.069 46.0164C373.069 50.2728 376.248 52.9229 381.465 52.9229C387.986 52.9229 394.262 48.506 394.262 43.2056V35.6566C391.654 37.584 388.067 37.7446 384.97 38.1461Z" fill="white"/>
<path d="M415.454 22.1653C418.959 17.1059 423.36 14.6162 429.799 14.6162C440.07 14.6162 443.819 20.1575 443.819 29.634V57.1798H436.891V32.7659C436.891 26.1807 436.565 20.5591 427.843 20.5591C418.796 20.5591 415.861 27.305 415.861 35.4965V57.1798H408.933V15.7405H415.454V22.1653Z" fill="white"/>
<path d="M468.843 58.5447C456.454 58.5447 449.036 50.5139 449.036 37.022C449.036 23.6105 456.943 14.5356 468.599 14.5356C482.456 14.5356 487.672 25.3772 487.672 37.3432V38.307H456.046L455.965 38.7888C455.965 47.6227 460.937 52.9231 469.088 52.9231C475.12 52.9231 478.462 50.3532 480.418 44.0892H487.183C485.064 53.6459 478.788 58.5447 468.843 58.5447ZM468.436 20.1571C461.671 20.1571 456.943 24.9757 456.046 32.7656H480.499C479.847 24.8954 475.364 20.1571 468.436 20.1571Z" fill="white"/>
<path d="M499.328 57.1797H492.318V0H499.328V57.1797Z" fill="white"/>
<path d="M531.36 27.7865C530.871 22.3255 527.04 20.2375 521.089 20.2375C515.791 20.2375 512.531 22.4058 512.531 25.8591C512.531 30.517 517.992 31.2398 523.698 32.5248C530.789 34.1309 540 36.1386 540 45.1332C540 53.164 533.072 58.4643 522.557 58.4643C511.145 58.4643 504.869 53.4049 504.462 44.0892H511.308C511.716 50.3532 516.036 52.8429 522.72 52.8429C528.914 52.8429 532.99 50.1123 532.99 45.9362C532.99 41.3587 528.262 40.395 522.394 38.9494C515.139 37.1827 505.439 36.2992 505.439 26.7425C505.439 19.2738 511.716 14.5356 521.497 14.5356C530.952 14.5356 538.288 19.0328 538.288 27.7865L531.36 27.7865Z" fill="white"/>
</svg>
